<?xml version="1.0" encoding="UTF-8" ?>
<!DOCTYPE svg PUBLIC "-//W3C//DTD SVG 1.1//EN" "http://www.w3.org/Graphics/SVG/1.1/DTD/svg11.dtd">
<svg width="28pt" height="28pt" viewBox="0 0 96 96" version="1.1" xmlns="http://www.w3.org/2000/svg">
<g id="#f2721bff">
<path fill="#f2721b" opacity="1.00" d=" M 39.28 24.22 C 46.40 18.14 54.00 12.60 62.08 7.88 C 59.78 14.61 57.67 21.69 58.30 28.88 C 59.27 35.25 61.24 41.62 64.74 47.07 C 65.89 42.53 66.07 37.84 66.54 33.21 C 70.23 40.23 73.53 47.48 76.47 54.85 C 79.40 61.58 77.96 69.36 74.96 75.80 C 71.42 83.29 63.30 87.31 55.57 89.08 C 60.42 84.94 61.84 77.70 59.05 71.99 C 55.72 65.57 51.61 59.56 47.24 53.81 C 42.92 60.08 38.19 66.20 35.09 73.21 C 32.93 78.30 34.49 84.14 37.97 88.23 C 31.47 86.20 25.19 82.32 21.74 76.29 C 17.02 68.52 16.95 58.64 19.98 50.25 C 23.67 39.88 31.12 31.37 39.28 24.22 Z" />
</g>
</svg>
