<?xml version="1.0" encoding="iso-8859-1"?>
<!-- Uploaded to: SVG Repo, www.svgrepo.com, Generator: SVG Repo Mixer Tools -->
<svg height="800px" width="800px" version="1.1" id="Layer_1" xmlns="http://www.w3.org/2000/svg" xmlns:xlink="http://www.w3.org/1999/xlink" 
	 viewBox="0 0 511.984 511.984" xml:space="preserve">
<path style="fill:#FB6D51;" d="M411.799,254.711c-7-28.14-23.656-56.827-49.469-85.263c-26.467-29.139-41.34-63.232-44.246-101.325
	c-2.219-28.718,3.594-49.123,3.656-49.295L327.301,0l-18.842,5.578C203.673,36.577,142.3,112.621,144.503,206.54
	c-7.453-3.734-17.203-8.875-28.671-15.421l-13.641-7.812l-2.219,15.562c-5.03,35.483-4.796,66.905,0.734,93.373
	c5.25,25.187,15.391,46.561,30.14,63.561c29.139,33.576,76.654,50.607,141.174,50.607c28.438,0,56.123-7.141,80.123-20.641
	c25.092-14.108,43.842-33.982,54.248-57.482C416.486,305.522,418.299,280.772,411.799,254.711z"/>
<g>
	<path style="fill:#E8563F;" d="M123.159,206.54c-0.078-3.781-0.063-7.547,0.063-11.265c-2.375-1.313-4.843-2.703-7.39-4.156
		l-13.641-7.812l-1.594,11.25C109.441,199.493,117.082,203.478,123.159,206.54z"/>
	<path style="fill:#E8563F;" d="M411.799,254.711c-7-28.14-23.656-56.827-49.469-85.263c-26.467-29.139-41.34-63.232-44.246-101.325
		c-2.219-28.718,3.594-49.123,3.656-49.295L327.301,0l-18.842,5.578c-1.531,0.453-3.031,0.922-4.563,1.391l-3.5,11.859
		c-0.063,0.172-5.844,20.577-3.656,49.295c2.906,38.093,17.813,72.186,44.248,101.325c25.842,28.437,42.467,57.124,49.498,85.263
		c6.469,26.062,4.656,50.812-5.406,73.575c-10.438,23.5-29.186,43.374-54.248,57.482c-21.529,12.109-46.061,19.094-71.395,20.406
		c4.123,0.156,8.326,0.234,12.584,0.234c28.438,0,56.123-7.141,80.123-20.641c25.092-14.108,43.842-33.982,54.248-57.482
		C416.486,305.522,418.299,280.772,411.799,254.711z"/>
</g>
<g>
	<path style="fill:#646C77;" d="M194.517,265.43c-4.266-4.063-11.016-3.891-15.078,0.391c-4.063,4.266-3.891,11.016,0.39,15.077l0,0
		l67.498,64.17l14.702-15.453L194.517,265.43z"/>
	<path style="fill:#646C77;" d="M328.769,217.931c-3.406-4.813-10.061-5.953-14.873-2.547l-63.413,44.889l12.327,17.421
		l63.396-44.905C331.019,229.399,332.176,222.743,328.769,217.931z"/>
</g>
<path style="fill:#434A54;" d="M288.053,490.656h-21.32V181.338c0-5.891-4.781-10.672-10.67-10.672
	c-5.891,0-10.672,4.781-10.672,10.672v309.318h-21.329c-5.89,0-10.671,4.781-10.671,10.672s4.781,10.656,10.671,10.656h21.328
	h21.342h21.32c5.906,0,10.688-4.766,10.688-10.656S293.959,490.656,288.053,490.656z"/>
</svg>